# xmcd
#
# Track frame offsets:
#	150
#	11408
#	29275
#	45079
#	63970
#	79243
#	91640
#	107198
#	125855
#	142092
#	153618
#	167774
#
# Disc length: 2447 seconds
#
# Revision: 0
# Processed by: cddbd v1.5.2PL0 Copyright (c) Steve Scherf et al.
# Submitted via: dBpowerAMP V4.0
#
DISCID=95098d0c
DTITLE=T-Bear and The Dukes Of Rhythm - Let The Sweet Talk Flow
DYEAR=2006
DGENRE=Blues
TTITLE0=Boogie And Soul
TTITLE1=Lipstick Woman
TTITLE2=Baby Please Don't Lie To Me
TTITLE3=Don't Touch Me Baby
TTITLE4=That's What The Blues Is Al About
TTITLE5=Do You Think I'm Wrong
TTITLE6=Let The Sweet Talk Flow
TTITLE7=T-Bear Blues
TTITLE8=She Moves Me
TTITLE9=Barefottin'
TTITLE10=Please Love Me
TTITLE11=You're Gone Need Me
EXTD=
EXTT0=
EXTT1=
EXTT2=
EXTT3=
EXTT4=
EXTT5=
EXTT6=
EXTT7=
EXTT8=
EXTT9=
EXTT10=
EXTT11=
PLAYORDER=
